<svg xmlns="http://www.w3.org/2000/svg" version="1.1" xmlns:xlink="http://www.w3.org/1999/xlink" xmlns:svgjs="http://svgjs.dev/svgjs" width="1513" height="900" preserveAspectRatio="none" viewBox="0 0 1513 900"><g mask="url(&quot;#SvgjsMask1162&quot;)" fill="none"><rect width="1513" height="900" x="0" y="0" fill="rgba(24, 23, 33, 1)"></rect><path d="M-95.65 542.3L-95.65 542.3" stroke="rgba(43, 77, 57, 1)" stroke-width="1.5"></path><path d="M-95.65 542.3L-60.91 658.04" stroke="rgba(43, 77, 57, 1)" stroke-width="1.5"></path><path d="M-95.65 542.3L51.55 643.14" stroke="rgba(43, 77, 57, 1)" stroke-width="1.5"></path><path d="M-95.65 542.3L-104.72 805.81" stroke="rgba(43, 77, 57, 1)" stroke-width="1.5"></path><path d="M-60.91 658.04L-60.91 658.04" stroke="rgba(43, 77, 57, 1)" stroke-width="1.5"></path><path d="M-60.91 658.04L51.55 643.14" stroke="rgba(43, 77, 57, 1)" stroke-width="1.5"></path><path d="M-104.72 805.81L-104.72 805.81" stroke="rgba(43, 77, 57, 1)" stroke-width="1.5"></path><path d="M-104.72 805.81L41.69 789.29" stroke="rgba(43, 77, 57, 1)" stroke-width="1.5"></path><path d="M-104.72 805.81L-60.91 658.04" stroke="rgba(43, 77, 57, 1)" stroke-width="1.5"></path><path d="M-104.72 805.81L51.55 643.14" stroke="rgba(43, 77, 57, 1)" stroke-width="1.5"></path><path d="M-104.72 805.81L82.43 945.58" stroke="rgba(43, 77, 57, 1)" stroke-width="1.5"></path><path d="M-104.72 805.81L190.71 656.23" stroke="rgba(43, 77, 57, 1)" stroke-width="1.5"></path><path d="M51.55 643.14L51.55 643.14" stroke="rgba(43, 77, 57, 1)" stroke-width="1.5"></path><path d="M51.55 643.14L190.71 656.23" stroke="rgba(43, 77, 57, 1)" stroke-width="1.5"></path><path d="M51.55 643.14L41.69 789.29" stroke="rgba(43, 77, 57, 1)" stroke-width="1.5"></path><path d="M41.69 789.29L41.69 789.29" stroke="rgba(43, 77, 57, 1)" stroke-width="1.5"></path><path d="M41.69 789.29L82.43 945.58" stroke="rgba(43, 77, 57, 1)" stroke-width="1.5"></path><path d="M41.69 789.29L-60.91 658.04" stroke="rgba(43, 77, 57, 1)" stroke-width="1.5"></path><path d="M82.43 945.58L82.43 945.58" stroke="rgba(43, 77, 57, 1)" stroke-width="1.5"></path><path d="M82.43 945.58L227.49 1001.98" stroke="rgba(43, 77, 57, 1)" stroke-width="1.5"></path><path d="M190.71 656.23L190.71 656.23" stroke="rgba(43, 77, 57, 1)" stroke-width="1.5"></path><path d="M190.71 656.23L41.69 789.29" stroke="rgba(43, 77, 57, 1)" stroke-width="1.5"></path><path d="M190.71 656.23L239.34 861.08" stroke="rgba(43, 77, 57, 1)" stroke-width="1.5"></path><path d="M190.71 656.23L352.31 802.79" stroke="rgba(43, 77, 57, 1)" stroke-width="1.5"></path><path d="M239.34 861.08L239.34 861.08" stroke="rgba(43, 77, 57, 1)" stroke-width="1.5"></path><path d="M239.34 861.08L352.31 802.79" stroke="rgba(43, 77, 57, 1)" stroke-width="1.5"></path><path d="M239.34 861.08L227.49 1001.98" stroke="rgba(43, 77, 57, 1)" stroke-width="1.5"></path><path d="M239.34 861.08L82.43 945.58" stroke="rgba(43, 77, 57, 1)" stroke-width="1.5"></path><path d="M239.34 861.08L397.02 961.41" stroke="rgba(43, 77, 57, 1)" stroke-width="1.5"></path><path d="M227.49 1001.98L227.49 1001.98" stroke="rgba(43, 77, 57, 1)" stroke-width="1.5"></path><path d="M227.49 1001.98L397.02 961.41" stroke="rgba(43, 77, 57, 1)" stroke-width="1.5"></path><path d="M227.49 1001.98L352.31 802.79" stroke="rgba(43, 77, 57, 1)" stroke-width="1.5"></path><path d="M227.49 1001.98L41.69 789.29" stroke="rgba(43, 77, 57, 1)" stroke-width="1.5"></path><path d="M227.49 1001.98L546.09 951.54" stroke="rgba(43, 77, 57, 1)" stroke-width="1.5"></path><path d="M380.04 522.22L380.04 522.22" stroke="rgba(43, 77, 57, 1)" stroke-width="1.5"></path><path d="M380.04 522.22L538.58 545.72" stroke="rgba(43, 77, 57, 1)" stroke-width="1.5"></path><path d="M380.04 522.22L516.82 694.57" stroke="rgba(43, 77, 57, 1)" stroke-width="1.5"></path><path d="M380.04 522.22L190.71 656.23" stroke="rgba(43, 77, 57, 1)" stroke-width="1.5"></path><path d="M352.31 802.79L352.31 802.79" stroke="rgba(43, 77, 57, 1)" stroke-width="1.5"></path><path d="M352.31 802.79L397.02 961.41" stroke="rgba(43, 77, 57, 1)" stroke-width="1.5"></path><path d="M397.02 961.41L397.02 961.41" stroke="rgba(43, 77, 57, 1)" stroke-width="1.5"></path><path d="M397.02 961.41L546.09 951.54" stroke="rgba(43, 77, 57, 1)" stroke-width="1.5"></path><path d="M538.58 545.72L538.58 545.72" stroke="rgba(43, 77, 57, 1)" stroke-width="1.5"></path><path d="M538.58 545.72L657.69 537.09" stroke="rgba(43, 77, 57, 1)" stroke-width="1.5"></path><path d="M538.58 545.72L516.82 694.57" stroke="rgba(43, 77, 57, 1)" stroke-width="1.5"></path><path d="M538.58 545.72L693.22 406.03" stroke="rgba(43, 77, 57, 1)" stroke-width="1.5"></path><path d="M538.58 545.72L550.57 842.82" stroke="rgba(43, 77, 57, 1)" stroke-width="1.5"></path><path d="M516.82 694.57L516.82 694.57" stroke="rgba(43, 77, 57, 1)" stroke-width="1.5"></path><path d="M516.82 694.57L550.57 842.82" stroke="rgba(43, 77, 57, 1)" stroke-width="1.5"></path><path d="M516.82 694.57L352.31 802.79" stroke="rgba(43, 77, 57, 1)" stroke-width="1.5"></path><path d="M516.82 694.57L657.69 537.09" stroke="rgba(43, 77, 57, 1)" stroke-width="1.5"></path><path d="M516.82 694.57L668.94 858.34" stroke="rgba(43, 77, 57, 1)" stroke-width="1.5"></path><path d="M550.57 842.82L550.57 842.82" stroke="rgba(43, 77, 57, 1)" stroke-width="1.5"></path><path d="M550.57 842.82L546.09 951.54" stroke="rgba(43, 77, 57, 1)" stroke-width="1.5"></path><path d="M550.57 842.82L668.94 858.34" stroke="rgba(43, 77, 57, 1)" stroke-width="1.5"></path><path d="M546.09 951.54L546.09 951.54" stroke="rgba(43, 77, 57, 1)" stroke-width="1.5"></path><path d="M546.09 951.54L654.15 950.02" stroke="rgba(43, 77, 57, 1)" stroke-width="1.5"></path><path d="M546.09 951.54L668.94 858.34" stroke="rgba(43, 77, 57, 1)" stroke-width="1.5"></path><path d="M546.09 951.54L352.31 802.79" stroke="rgba(43, 77, 57, 1)" stroke-width="1.5"></path><path d="M546.09 951.54L516.82 694.57" stroke="rgba(43, 77, 57, 1)" stroke-width="1.5"></path><path d="M693.22 406.03L693.22 406.03" stroke="rgba(43, 77, 57, 1)" stroke-width="1.5"></path><path d="M693.22 406.03L657.69 537.09" stroke="rgba(43, 77, 57, 1)" stroke-width="1.5"></path><path d="M693.22 406.03L817.49 343.58" stroke="rgba(43, 77, 57, 1)" stroke-width="1.5"></path><path d="M693.22 406.03L857.48 527.55" stroke="rgba(43, 77, 57, 1)" stroke-width="1.5"></path><path d="M693.22 406.03L858.94 204.24" stroke="rgba(43, 77, 57, 1)" stroke-width="1.5"></path><path d="M657.69 537.09L657.69 537.09" stroke="rgba(43, 77, 57, 1)" stroke-width="1.5"></path><path d="M657.69 537.09L857.48 527.55" stroke="rgba(43, 77, 57, 1)" stroke-width="1.5"></path><path d="M657.69 537.09L841.37 641.61" stroke="rgba(43, 77, 57, 1)" stroke-width="1.5"></path><path d="M657.69 537.09L817.49 343.58" stroke="rgba(43, 77, 57, 1)" stroke-width="1.5"></path><path d="M668.94 858.34L668.94 858.34" stroke="rgba(43, 77, 57, 1)" stroke-width="1.5"></path><path d="M668.94 858.34L654.15 950.02" stroke="rgba(43, 77, 57, 1)" stroke-width="1.5"></path><path d="M668.94 858.34L808.51 860.79" stroke="rgba(43, 77, 57, 1)" stroke-width="1.5"></path><path d="M654.15 950.02L654.15 950.02" stroke="rgba(43, 77, 57, 1)" stroke-width="1.5"></path><path d="M858.94 204.24L858.94 204.24" stroke="rgba(43, 77, 57, 1)" stroke-width="1.5"></path><path d="M858.94 204.24L974.46 224.52" stroke="rgba(43, 77, 57, 1)" stroke-width="1.5"></path><path d="M858.94 204.24L817.49 343.58" stroke="rgba(43, 77, 57, 1)" stroke-width="1.5"></path><path d="M817.49 343.58L817.49 343.58" stroke="rgba(43, 77, 57, 1)" stroke-width="1.5"></path><path d="M817.49 343.58L976.36 341.21" stroke="rgba(43, 77, 57, 1)" stroke-width="1.5"></path><path d="M817.49 343.58L857.48 527.55" stroke="rgba(43, 77, 57, 1)" stroke-width="1.5"></path><path d="M817.49 343.58L974.46 224.52" stroke="rgba(43, 77, 57, 1)" stroke-width="1.5"></path><path d="M817.49 343.58L1007.69 500.06" stroke="rgba(43, 77, 57, 1)" stroke-width="1.5"></path><path d="M857.48 527.55L857.48 527.55" stroke="rgba(43, 77, 57, 1)" stroke-width="1.5"></path><path d="M857.48 527.55L841.37 641.61" stroke="rgba(43, 77, 57, 1)" stroke-width="1.5"></path><path d="M857.48 527.55L1007.69 500.06" stroke="rgba(43, 77, 57, 1)" stroke-width="1.5"></path><path d="M841.37 641.61L841.37 641.61" stroke="rgba(43, 77, 57, 1)" stroke-width="1.5"></path><path d="M841.37 641.61L960.35 707.63" stroke="rgba(43, 77, 57, 1)" stroke-width="1.5"></path><path d="M841.37 641.61L1007.69 500.06" stroke="rgba(43, 77, 57, 1)" stroke-width="1.5"></path><path d="M841.37 641.61L808.51 860.79" stroke="rgba(43, 77, 57, 1)" stroke-width="1.5"></path><path d="M841.37 641.61L1000.82 832.93" stroke="rgba(43, 77, 57, 1)" stroke-width="1.5"></path><path d="M808.51 860.79L808.51 860.79" stroke="rgba(43, 77, 57, 1)" stroke-width="1.5"></path><path d="M808.51 860.79L854.48 1005.57" stroke="rgba(43, 77, 57, 1)" stroke-width="1.5"></path><path d="M808.51 860.79L654.15 950.02" stroke="rgba(43, 77, 57, 1)" stroke-width="1.5"></path><path d="M808.51 860.79L1000.82 832.93" stroke="rgba(43, 77, 57, 1)" stroke-width="1.5"></path><path d="M808.51 860.79L995 939.46" stroke="rgba(43, 77, 57, 1)" stroke-width="1.5"></path><path d="M854.48 1005.57L854.48 1005.57" stroke="rgba(43, 77, 57, 1)" stroke-width="1.5"></path><path d="M854.48 1005.57L995 939.46" stroke="rgba(43, 77, 57, 1)" stroke-width="1.5"></path><path d="M854.48 1005.57L654.15 950.02" stroke="rgba(43, 77, 57, 1)" stroke-width="1.5"></path><path d="M1001.1 -86.77L1001.1 -86.77" stroke="rgba(43, 77, 57, 1)" stroke-width="1.5"></path><path d="M1001.1 -86.77L1111.61 -80.77" stroke="rgba(43, 77, 57, 1)" stroke-width="1.5"></path><path d="M1001.1 -86.77L966.26 54.19" stroke="rgba(43, 77, 57, 1)" stroke-width="1.5"></path><path d="M966.26 54.19L966.26 54.19" stroke="rgba(43, 77, 57, 1)" stroke-width="1.5"></path><path d="M966.26 54.19L974.46 224.52" stroke="rgba(43, 77, 57, 1)" stroke-width="1.5"></path><path d="M974.46 224.52L974.46 224.52" stroke="rgba(43, 77, 57, 1)" stroke-width="1.5"></path><path d="M974.46 224.52L976.36 341.21" stroke="rgba(43, 77, 57, 1)" stroke-width="1.5"></path><path d="M976.36 341.21L976.36 341.21" stroke="rgba(43, 77, 57, 1)" stroke-width="1.5"></path><path d="M976.36 341.21L1120.07 406.56" stroke="rgba(43, 77, 57, 1)" stroke-width="1.5"></path><path d="M1007.69 500.06L1007.69 500.06" stroke="rgba(43, 77, 57, 1)" stroke-width="1.5"></path><path d="M1007.69 500.06L1120.07 406.56" stroke="rgba(43, 77, 57, 1)" stroke-width="1.5"></path><path d="M1007.69 500.06L1160.03 526.85" stroke="rgba(43, 77, 57, 1)" stroke-width="1.5"></path><path d="M1007.69 500.06L976.36 341.21" stroke="rgba(43, 77, 57, 1)" stroke-width="1.5"></path><path d="M1007.69 500.06L960.35 707.63" stroke="rgba(43, 77, 57, 1)" stroke-width="1.5"></path><path d="M960.35 707.63L960.35 707.63" stroke="rgba(43, 77, 57, 1)" stroke-width="1.5"></path><path d="M960.35 707.63L1000.82 832.93" stroke="rgba(43, 77, 57, 1)" stroke-width="1.5"></path><path d="M1000.82 832.93L1000.82 832.93" stroke="rgba(43, 77, 57, 1)" stroke-width="1.5"></path><path d="M1000.82 832.93L995 939.46" stroke="rgba(43, 77, 57, 1)" stroke-width="1.5"></path><path d="M995 939.46L995 939.46" stroke="rgba(43, 77, 57, 1)" stroke-width="1.5"></path><path d="M995 939.46L1158.99 986.76" stroke="rgba(43, 77, 57, 1)" stroke-width="1.5"></path><path d="M1111.61 -80.77L1111.61 -80.77" stroke="rgba(43, 77, 57, 1)" stroke-width="1.5"></path><path d="M1111.61 -80.77L1148.73 72.19" stroke="rgba(43, 77, 57, 1)" stroke-width="1.5"></path><path d="M1111.61 -80.77L1288.12 -107.35" stroke="rgba(43, 77, 57, 1)" stroke-width="1.5"></path><path d="M1148.73 72.19L1148.73 72.19" stroke="rgba(43, 77, 57, 1)" stroke-width="1.5"></path><path d="M1148.73 72.19L1307.06 60.21" stroke="rgba(43, 77, 57, 1)" stroke-width="1.5"></path><path d="M1120.07 406.56L1120.07 406.56" stroke="rgba(43, 77, 57, 1)" stroke-width="1.5"></path><path d="M1120.07 406.56L1160.03 526.85" stroke="rgba(43, 77, 57, 1)" stroke-width="1.5"></path><path d="M1160.03 526.85L1160.03 526.85" stroke="rgba(43, 77, 57, 1)" stroke-width="1.5"></path><path d="M1160.03 526.85L1297.62 509.96" stroke="rgba(43, 77, 57, 1)" stroke-width="1.5"></path><path d="M1156.81 686.78L1156.81 686.78" stroke="rgba(43, 77, 57, 1)" stroke-width="1.5"></path><path d="M1156.81 686.78L1134.71 808.56" stroke="rgba(43, 77, 57, 1)" stroke-width="1.5"></path><path d="M1156.81 686.78L1160.03 526.85" stroke="rgba(43, 77, 57, 1)" stroke-width="1.5"></path><path d="M1134.71 808.56L1134.71 808.56" stroke="rgba(43, 77, 57, 1)" stroke-width="1.5"></path><path d="M1134.71 808.56L1000.82 832.93" stroke="rgba(43, 77, 57, 1)" stroke-width="1.5"></path><path d="M1134.71 808.56L1287.27 855.76" stroke="rgba(43, 77, 57, 1)" stroke-width="1.5"></path><path d="M1158.99 986.76L1158.99 986.76" stroke="rgba(43, 77, 57, 1)" stroke-width="1.5"></path><path d="M1158.99 986.76L1305.72 937.69" stroke="rgba(43, 77, 57, 1)" stroke-width="1.5"></path><path d="M1158.99 986.76L1134.71 808.56" stroke="rgba(43, 77, 57, 1)" stroke-width="1.5"></path><path d="M1288.12 -107.35L1288.12 -107.35" stroke="rgba(43, 77, 57, 1)" stroke-width="1.5"></path><path d="M1288.12 -107.35L1404.96 -51.4" stroke="rgba(43, 77, 57, 1)" stroke-width="1.5"></path><path d="M1288.12 -107.35L1307.06 60.21" stroke="rgba(43, 77, 57, 1)" stroke-width="1.5"></path><path d="M1288.12 -107.35L1148.73 72.19" stroke="rgba(43, 77, 57, 1)" stroke-width="1.5"></path><path d="M1288.12 -107.35L1545.75 -44.77" stroke="rgba(43, 77, 57, 1)" stroke-width="1.5"></path><path d="M1307.06 60.21L1307.06 60.21" stroke="rgba(43, 77, 57, 1)" stroke-width="1.5"></path><path d="M1307.06 60.21L1404.96 -51.4" stroke="rgba(43, 77, 57, 1)" stroke-width="1.5"></path><path d="M1307.06 60.21L1281.58 208.9" stroke="rgba(43, 77, 57, 1)" stroke-width="1.5"></path><path d="M1307.06 60.21L1407 231.59" stroke="rgba(43, 77, 57, 1)" stroke-width="1.5"></path><path d="M1281.58 208.9L1281.58 208.9" stroke="rgba(43, 77, 57, 1)" stroke-width="1.5"></path><path d="M1281.58 208.9L1407 231.59" stroke="rgba(43, 77, 57, 1)" stroke-width="1.5"></path><path d="M1281.58 208.9L1280.92 382.89" stroke="rgba(43, 77, 57, 1)" stroke-width="1.5"></path><path d="M1281.58 208.9L1148.73 72.19" stroke="rgba(43, 77, 57, 1)" stroke-width="1.5"></path><path d="M1281.58 208.9L1430.29 381.53" stroke="rgba(43, 77, 57, 1)" stroke-width="1.5"></path><path d="M1280.92 382.89L1280.92 382.89" stroke="rgba(43, 77, 57, 1)" stroke-width="1.5"></path><path d="M1280.92 382.89L1297.62 509.96" stroke="rgba(43, 77, 57, 1)" stroke-width="1.5"></path><path d="M1280.92 382.89L1430.29 381.53" stroke="rgba(43, 77, 57, 1)" stroke-width="1.5"></path><path d="M1280.92 382.89L1120.07 406.56" stroke="rgba(43, 77, 57, 1)" stroke-width="1.5"></path><path d="M1297.62 509.96L1297.62 509.96" stroke="rgba(43, 77, 57, 1)" stroke-width="1.5"></path><path d="M1287.27 855.76L1287.27 855.76" stroke="rgba(43, 77, 57, 1)" stroke-width="1.5"></path><path d="M1287.27 855.76L1305.72 937.69" stroke="rgba(43, 77, 57, 1)" stroke-width="1.5"></path><path d="M1287.27 855.76L1392.89 812.33" stroke="rgba(43, 77, 57, 1)" stroke-width="1.5"></path><path d="M1287.27 855.76L1158.99 986.76" stroke="rgba(43, 77, 57, 1)" stroke-width="1.5"></path><path d="M1305.72 937.69L1305.72 937.69" stroke="rgba(43, 77, 57, 1)" stroke-width="1.5"></path><path d="M1305.72 937.69L1392.89 812.33" stroke="rgba(43, 77, 57, 1)" stroke-width="1.5"></path><path d="M1305.72 937.69L1458.56 985.32" stroke="rgba(43, 77, 57, 1)" stroke-width="1.5"></path><path d="M1404.96 -51.4L1404.96 -51.4" stroke="rgba(43, 77, 57, 1)" stroke-width="1.5"></path><path d="M1404.96 -51.4L1545.75 -44.77" stroke="rgba(43, 77, 57, 1)" stroke-width="1.5"></path><path d="M1404.96 -51.4L1540.78 39.68" stroke="rgba(43, 77, 57, 1)" stroke-width="1.5"></path><path d="M1407 231.59L1407 231.59" stroke="rgba(43, 77, 57, 1)" stroke-width="1.5"></path><path d="M1407 231.59L1430.29 381.53" stroke="rgba(43, 77, 57, 1)" stroke-width="1.5"></path><path d="M1407 231.59L1571.33 232.04" stroke="rgba(43, 77, 57, 1)" stroke-width="1.5"></path><path d="M1407 231.59L1280.92 382.89" stroke="rgba(43, 77, 57, 1)" stroke-width="1.5"></path><path d="M1430.29 381.53L1430.29 381.53" stroke="rgba(43, 77, 57, 1)" stroke-width="1.5"></path><path d="M1430.29 381.53L1545.64 383.99" stroke="rgba(43, 77, 57, 1)" stroke-width="1.5"></path><path d="M1430.29 381.53L1297.62 509.96" stroke="rgba(43, 77, 57, 1)" stroke-width="1.5"></path><path d="M1430.29 381.53L1589.88 508.86" stroke="rgba(43, 77, 57, 1)" stroke-width="1.5"></path><path d="M1430.29 381.53L1571.33 232.04" stroke="rgba(43, 77, 57, 1)" stroke-width="1.5"></path><path d="M1421.83 699.18L1421.83 699.18" stroke="rgba(43, 77, 57, 1)" stroke-width="1.5"></path><path d="M1421.83 699.18L1392.89 812.33" stroke="rgba(43, 77, 57, 1)" stroke-width="1.5"></path><path d="M1421.83 699.18L1562.28 808.1" stroke="rgba(43, 77, 57, 1)" stroke-width="1.5"></path><path d="M1421.83 699.18L1607.57 674.45" stroke="rgba(43, 77, 57, 1)" stroke-width="1.5"></path><path d="M1421.83 699.18L1287.27 855.76" stroke="rgba(43, 77, 57, 1)" stroke-width="1.5"></path><path d="M1421.83 699.18L1297.62 509.96" stroke="rgba(43, 77, 57, 1)" stroke-width="1.5"></path><path d="M1421.83 699.18L1589.88 508.86" stroke="rgba(43, 77, 57, 1)" stroke-width="1.5"></path><path d="M1392.89 812.33L1392.89 812.33" stroke="rgba(43, 77, 57, 1)" stroke-width="1.5"></path><path d="M1392.89 812.33L1562.28 808.1" stroke="rgba(43, 77, 57, 1)" stroke-width="1.5"></path><path d="M1392.89 812.33L1458.56 985.32" stroke="rgba(43, 77, 57, 1)" stroke-width="1.5"></path><path d="M1458.56 985.32L1458.56 985.32" stroke="rgba(43, 77, 57, 1)" stroke-width="1.5"></path><path d="M1458.56 985.32L1559.42 957.13" stroke="rgba(43, 77, 57, 1)" stroke-width="1.5"></path><path d="M1458.56 985.32L1562.28 808.1" stroke="rgba(43, 77, 57, 1)" stroke-width="1.5"></path><path d="M1458.56 985.32L1287.27 855.76" stroke="rgba(43, 77, 57, 1)" stroke-width="1.5"></path><path d="M1545.75 -44.77L1545.75 -44.77" stroke="rgba(43, 77, 57, 1)" stroke-width="1.5"></path><path d="M1545.75 -44.77L1540.78 39.68" stroke="rgba(43, 77, 57, 1)" stroke-width="1.5"></path><path d="M1545.75 -44.77L1697.35 -77.93" stroke="rgba(43, 77, 57, 1)" stroke-width="1.5"></path><path d="M1545.75 -44.77L1714.14 40.74" stroke="rgba(43, 77, 57, 1)" stroke-width="1.5"></path><path d="M1545.75 -44.77L1307.06 60.21" stroke="rgba(43, 77, 57, 1)" stroke-width="1.5"></path><path d="M1540.78 39.68L1540.78 39.68" stroke="rgba(43, 77, 57, 1)" stroke-width="1.5"></path><path d="M1540.78 39.68L1714.14 40.74" stroke="rgba(43, 77, 57, 1)" stroke-width="1.5"></path><path d="M1540.78 39.68L1571.33 232.04" stroke="rgba(43, 77, 57, 1)" stroke-width="1.5"></path><path d="M1540.78 39.68L1697.35 -77.93" stroke="rgba(43, 77, 57, 1)" stroke-width="1.5"></path><path d="M1571.33 232.04L1571.33 232.04" stroke="rgba(43, 77, 57, 1)" stroke-width="1.5"></path><path d="M1571.33 232.04L1545.64 383.99" stroke="rgba(43, 77, 57, 1)" stroke-width="1.5"></path><path d="M1571.33 232.04L1729.92 246.27" stroke="rgba(43, 77, 57, 1)" stroke-width="1.5"></path><path d="M1571.33 232.04L1720.62 342.46" stroke="rgba(43, 77, 57, 1)" stroke-width="1.5"></path><path d="M1545.64 383.99L1545.64 383.99" stroke="rgba(43, 77, 57, 1)" stroke-width="1.5"></path><path d="M1545.64 383.99L1589.88 508.86" stroke="rgba(43, 77, 57, 1)" stroke-width="1.5"></path><path d="M1545.64 383.99L1720.62 342.46" stroke="rgba(43, 77, 57, 1)" stroke-width="1.5"></path><path d="M1545.64 383.99L1407 231.59" stroke="rgba(43, 77, 57, 1)" stroke-width="1.5"></path><path d="M1589.88 508.86L1589.88 508.86" stroke="rgba(43, 77, 57, 1)" stroke-width="1.5"></path><path d="M1589.88 508.86L1607.57 674.45" stroke="rgba(43, 77, 57, 1)" stroke-width="1.5"></path><path d="M1589.88 508.86L1720.62 342.46" stroke="rgba(43, 77, 57, 1)" stroke-width="1.5"></path><path d="M1607.57 674.45L1607.57 674.45" stroke="rgba(43, 77, 57, 1)" stroke-width="1.5"></path><path d="M1607.57 674.45L1735.57 681.13" stroke="rgba(43, 77, 57, 1)" stroke-width="1.5"></path><path d="M1607.57 674.45L1562.28 808.1" stroke="rgba(43, 77, 57, 1)" stroke-width="1.5"></path><path d="M1562.28 808.1L1562.28 808.1" stroke="rgba(43, 77, 57, 1)" stroke-width="1.5"></path><path d="M1562.28 808.1L1559.42 957.13" stroke="rgba(43, 77, 57, 1)" stroke-width="1.5"></path><path d="M1562.28 808.1L1737.89 857.62" stroke="rgba(43, 77, 57, 1)" stroke-width="1.5"></path><path d="M1559.42 957.13L1559.42 957.13" stroke="rgba(43, 77, 57, 1)" stroke-width="1.5"></path><path d="M1559.42 957.13L1760.45 941.87" stroke="rgba(43, 77, 57, 1)" stroke-width="1.5"></path><path d="M1559.42 957.13L1737.89 857.62" stroke="rgba(43, 77, 57, 1)" stroke-width="1.5"></path><path d="M1559.42 957.13L1392.89 812.33" stroke="rgba(43, 77, 57, 1)" stroke-width="1.5"></path><path d="M1697.35 -77.93L1697.35 -77.93" stroke="rgba(43, 77, 57, 1)" stroke-width="1.5"></path><path d="M1697.35 -77.93L1714.14 40.74" stroke="rgba(43, 77, 57, 1)" stroke-width="1.5"></path><path d="M1714.14 40.74L1714.14 40.74" stroke="rgba(43, 77, 57, 1)" stroke-width="1.5"></path><path d="M1714.14 40.74L1729.92 246.27" stroke="rgba(43, 77, 57, 1)" stroke-width="1.5"></path><path d="M1729.92 246.27L1729.92 246.27" stroke="rgba(43, 77, 57, 1)" stroke-width="1.5"></path><path d="M1729.92 246.27L1720.62 342.46" stroke="rgba(43, 77, 57, 1)" stroke-width="1.5"></path><path d="M1729.92 246.27L1545.64 383.99" stroke="rgba(43, 77, 57, 1)" stroke-width="1.5"></path><path d="M1720.62 342.46L1720.62 342.46" stroke="rgba(43, 77, 57, 1)" stroke-width="1.5"></path><path d="M1735.57 681.13L1735.57 681.13" stroke="rgba(43, 77, 57, 1)" stroke-width="1.5"></path><path d="M1735.57 681.13L1737.89 857.62" stroke="rgba(43, 77, 57, 1)" stroke-width="1.5"></path><path d="M1737.89 857.62L1737.89 857.62" stroke="rgba(43, 77, 57, 1)" stroke-width="1.5"></path><path d="M1737.89 857.62L1760.45 941.87" stroke="rgba(43, 77, 57, 1)" stroke-width="1.5"></path><path d="M1737.89 857.62L1607.57 674.45" stroke="rgba(43, 77, 57, 1)" stroke-width="1.5"></path><path d="M1737.89 857.62L1458.56 985.32" stroke="rgba(43, 77, 57, 1)" stroke-width="1.5"></path><path d="M1760.45 941.87L1760.45 941.87" stroke="rgba(43, 77, 57, 1)" stroke-width="1.5"></path><path d="M1760.45 941.87L1562.28 808.1" stroke="rgba(43, 77, 57, 1)" stroke-width="1.5"></path><path d="M1760.45 941.87L1735.57 681.13" stroke="rgba(43, 77, 57, 1)" stroke-width="1.5"></path><path d="M1760.45 941.87L1458.56 985.32" stroke="rgba(43, 77, 57, 1)" stroke-width="1.5"></path><path d="M1760.45 941.87L1607.57 674.45" stroke="rgba(43, 77, 57, 1)" stroke-width="1.5"></path><circle r="5" cx="-95.65" cy="542.3" fill="rgba(43, 77, 57, 1)"></circle><circle r="5" cx="-60.91" cy="658.04" fill="rgba(43, 77, 57, 1)"></circle><circle r="5" cx="-104.72" cy="805.81" fill="rgba(43, 77, 57, 1)"></circle><circle r="5" cx="51.55" cy="643.14" fill="rgba(43, 77, 57, 1)"></circle><circle r="5" cx="41.69" cy="789.29" fill="rgba(43, 77, 57, 1)"></circle><circle r="5" cx="82.43" cy="945.58" fill="rgba(43, 77, 57, 1)"></circle><circle r="5" cx="190.71" cy="656.23" fill="rgba(43, 77, 57, 1)"></circle><circle r="5" cx="239.34" cy="861.08" fill="rgba(43, 77, 57, 1)"></circle><circle r="5" cx="227.49" cy="1001.98" fill="rgba(43, 77, 57, 1)"></circle><circle r="5" cx="380.04" cy="522.22" fill="rgba(43, 77, 57, 1)"></circle><circle r="5" cx="352.31" cy="802.79" fill="rgba(43, 77, 57, 1)"></circle><circle r="5" cx="397.02" cy="961.41" fill="rgba(43, 77, 57, 1)"></circle><circle r="5" cx="538.58" cy="545.72" fill="rgba(43, 77, 57, 1)"></circle><circle r="5" cx="516.82" cy="694.57" fill="rgba(43, 77, 57, 1)"></circle><circle r="5" cx="550.57" cy="842.82" fill="rgba(43, 77, 57, 1)"></circle><circle r="5" cx="546.09" cy="951.54" fill="rgba(43, 77, 57, 1)"></circle><circle r="5" cx="693.22" cy="406.03" fill="rgba(43, 77, 57, 1)"></circle><circle r="5" cx="657.69" cy="537.09" fill="rgba(43, 77, 57, 1)"></circle><circle r="5" cx="668.94" cy="858.34" fill="rgba(43, 77, 57, 1)"></circle><circle r="5" cx="654.15" cy="950.02" fill="rgba(43, 77, 57, 1)"></circle><circle r="5" cx="858.94" cy="204.24" fill="rgba(43, 77, 57, 1)"></circle><circle r="5" cx="817.49" cy="343.58" fill="rgba(43, 77, 57, 1)"></circle><circle r="5" cx="857.48" cy="527.55" fill="rgba(43, 77, 57, 1)"></circle><circle r="5" cx="841.37" cy="641.61" fill="rgba(43, 77, 57, 1)"></circle><circle r="5" cx="808.51" cy="860.79" fill="rgba(43, 77, 57, 1)"></circle><circle r="5" cx="854.48" cy="1005.57" fill="rgba(43, 77, 57, 1)"></circle><circle r="5" cx="1001.1" cy="-86.77" fill="rgba(43, 77, 57, 1)"></circle><circle r="5" cx="966.26" cy="54.19" fill="rgba(43, 77, 57, 1)"></circle><circle r="5" cx="974.46" cy="224.52" fill="rgba(43, 77, 57, 1)"></circle><circle r="5" cx="976.36" cy="341.21" fill="rgba(43, 77, 57, 1)"></circle><circle r="5" cx="1007.69" cy="500.06" fill="rgba(43, 77, 57, 1)"></circle><circle r="5" cx="960.35" cy="707.63" fill="rgba(43, 77, 57, 1)"></circle><circle r="5" cx="1000.82" cy="832.93" fill="rgba(43, 77, 57, 1)"></circle><circle r="5" cx="995" cy="939.46" fill="rgba(43, 77, 57, 1)"></circle><circle r="5" cx="1111.61" cy="-80.77" fill="rgba(43, 77, 57, 1)"></circle><circle r="5" cx="1148.73" cy="72.19" fill="rgba(43, 77, 57, 1)"></circle><circle r="5" cx="1120.07" cy="406.56" fill="rgba(43, 77, 57, 1)"></circle><circle r="5" cx="1160.03" cy="526.85" fill="rgba(43, 77, 57, 1)"></circle><circle r="5" cx="1156.81" cy="686.78" fill="rgba(43, 77, 57, 1)"></circle><circle r="5" cx="1134.71" cy="808.56" fill="rgba(43, 77, 57, 1)"></circle><circle r="5" cx="1158.99" cy="986.76" fill="rgba(43, 77, 57, 1)"></circle><circle r="5" cx="1288.12" cy="-107.35" fill="rgba(43, 77, 57, 1)"></circle><circle r="5" cx="1307.06" cy="60.21" fill="rgba(43, 77, 57, 1)"></circle><circle r="5" cx="1281.58" cy="208.9" fill="rgba(43, 77, 57, 1)"></circle><circle r="5" cx="1280.92" cy="382.89" fill="rgba(43, 77, 57, 1)"></circle><circle r="5" cx="1297.62" cy="509.96" fill="rgba(43, 77, 57, 1)"></circle><circle r="5" cx="1287.27" cy="855.76" fill="rgba(43, 77, 57, 1)"></circle><circle r="5" cx="1305.72" cy="937.69" fill="rgba(43, 77, 57, 1)"></circle><circle r="5" cx="1404.96" cy="-51.4" fill="rgba(43, 77, 57, 1)"></circle><circle r="5" cx="1407" cy="231.59" fill="rgba(43, 77, 57, 1)"></circle><circle r="5" cx="1430.29" cy="381.53" fill="rgba(43, 77, 57, 1)"></circle><circle r="5" cx="1421.83" cy="699.18" fill="rgba(43, 77, 57, 1)"></circle><circle r="5" cx="1392.89" cy="812.33" fill="rgba(43, 77, 57, 1)"></circle><circle r="5" cx="1458.56" cy="985.32" fill="rgba(43, 77, 57, 1)"></circle><circle r="5" cx="1545.75" cy="-44.77" fill="rgba(43, 77, 57, 1)"></circle><circle r="5" cx="1540.78" cy="39.68" fill="rgba(43, 77, 57, 1)"></circle><circle r="5" cx="1571.33" cy="232.04" fill="rgba(43, 77, 57, 1)"></circle><circle r="5" cx="1545.64" cy="383.99" fill="rgba(43, 77, 57, 1)"></circle><circle r="5" cx="1589.88" cy="508.86" fill="rgba(43, 77, 57, 1)"></circle><circle r="5" cx="1607.57" cy="674.45" fill="rgba(43, 77, 57, 1)"></circle><circle r="5" cx="1562.28" cy="808.1" fill="rgba(43, 77, 57, 1)"></circle><circle r="5" cx="1559.42" cy="957.13" fill="rgba(43, 77, 57, 1)"></circle><circle r="5" cx="1697.35" cy="-77.93" fill="rgba(43, 77, 57, 1)"></circle><circle r="5" cx="1714.14" cy="40.74" fill="rgba(43, 77, 57, 1)"></circle><circle r="5" cx="1729.92" cy="246.27" fill="rgba(43, 77, 57, 1)"></circle><circle r="5" cx="1720.62" cy="342.46" fill="rgba(43, 77, 57, 1)"></circle><circle r="5" cx="1735.57" cy="681.13" fill="rgba(43, 77, 57, 1)"></circle><circle r="5" cx="1737.89" cy="857.62" fill="rgba(43, 77, 57, 1)"></circle><circle r="5" cx="1760.45" cy="941.87" fill="rgba(43, 77, 57, 1)"></circle><path d="M-85.24 978.18L-85.24 978.18" stroke="hsl(144.5, 32.4%, 52%)" stroke-width="1.5"></path><path d="M-85.24 978.18L57.42 975.15" stroke="hsl(144.5, 32.4%, 52%)" stroke-width="1.5"></path><path d="M-85.24 978.18L41.83 847.25" stroke="hsl(144.5, 32.4%, 52%)" stroke-width="1.5"></path><path d="M-85.24 978.18L-39.22 796.32" stroke="hsl(144.5, 32.4%, 52%)" stroke-width="1.5"></path><path d="M392.35 818.38L392.35 818.38" stroke="hsl(144.5, 32.4%, 52%)" stroke-width="1.5"></path><path d="M392.35 818.38L401.76 940.99" stroke="hsl(144.5, 32.4%, 52%)" stroke-width="1.5"></path><path d="M392.35 818.38L262.08 787.92" stroke="hsl(144.5, 32.4%, 52%)" stroke-width="1.5"></path><path d="M813.72 685.03L813.72 685.03" stroke="hsl(144.5, 32.4%, 52%)" stroke-width="1.5"></path><path d="M813.72 685.03L832.5 788.71" stroke="hsl(144.5, 32.4%, 52%)" stroke-width="1.5"></path><path d="M813.72 685.03L685.69 645.18" stroke="hsl(144.5, 32.4%, 52%)" stroke-width="1.5"></path><path d="M938.61 547.69L938.61 547.69" stroke="hsl(144.5, 32.4%, 52%)" stroke-width="1.5"></path><path d="M938.61 547.69L953.96 682.25" stroke="hsl(144.5, 32.4%, 52%)" stroke-width="1.5"></path><path d="M938.61 547.69L1102.18 506.36" stroke="hsl(144.5, 32.4%, 52%)" stroke-width="1.5"></path><path d="M938.61 547.69L813.72 685.03" stroke="hsl(144.5, 32.4%, 52%)" stroke-width="1.5"></path><path d="M938.61 547.69L1156.42 644.39" stroke="hsl(144.5, 32.4%, 52%)" stroke-width="1.5"></path><path d="M938.61 547.69L1114.72 369" stroke="hsl(144.5, 32.4%, 52%)" stroke-width="1.5"></path><path d="M1254.98 345.38L1254.98 345.38" stroke="hsl(144.5, 32.4%, 52%)" stroke-width="1.5"></path><path d="M1254.98 345.38L1276.11 228.66" stroke="hsl(144.5, 32.4%, 52%)" stroke-width="1.5"></path><path d="M1254.98 345.38L1114.72 369" stroke="hsl(144.5, 32.4%, 52%)" stroke-width="1.5"></path><path d="M1254.98 345.38L1438.2 372.21" stroke="hsl(144.5, 32.4%, 52%)" stroke-width="1.5"></path><path d="M1285.61 990.55L1285.61 990.55" stroke="hsl(144.5, 32.4%, 52%)" stroke-width="1.5"></path><path d="M1285.61 990.55L1394.96 981.19" stroke="hsl(144.5, 32.4%, 52%)" stroke-width="1.5"></path><path d="M1285.61 990.55L1242.27 829.55" stroke="hsl(144.5, 32.4%, 52%)" stroke-width="1.5"></path><path d="M1285.61 990.55L1100.91 993.64" stroke="hsl(144.5, 32.4%, 52%)" stroke-width="1.5"></path><path d="M1285.61 990.55L1438.7 828.94" stroke="hsl(144.5, 32.4%, 52%)" stroke-width="1.5"></path><path d="M1438.2 372.21L1438.2 372.21" stroke="hsl(144.5, 32.4%, 52%)" stroke-width="1.5"></path><path d="M1438.2 372.21L1406.73 505.07" stroke="hsl(144.5, 32.4%, 52%)" stroke-width="1.5"></path><path d="M1438.2 372.21L1594.62 376.36" stroke="hsl(144.5, 32.4%, 52%)" stroke-width="1.5"></path><path d="M1544.42 -94.64L1544.42 -94.64" stroke="hsl(144.5, 32.4%, 52%)" stroke-width="1.5"></path><path d="M1544.42 -94.64L1446.44 -106.73" stroke="hsl(144.5, 32.4%, 52%)" stroke-width="1.5"></path><path d="M1544.42 -94.64L1603.07 41.64" stroke="hsl(144.5, 32.4%, 52%)" stroke-width="1.5"></path><path d="M1544.42 -94.64L1737.53 -77.52" stroke="hsl(144.5, 32.4%, 52%)" stroke-width="1.5"></path><path d="M1544.42 -94.64L1747.22 104.01" stroke="hsl(144.5, 32.4%, 52%)" stroke-width="1.5"></path><path d="M1544.42 -94.64L1304.64 82.2" stroke="hsl(144.5, 32.4%, 52%)" stroke-width="1.5"></path><path d="M1544.42 -94.64L1741.2 220.49" stroke="hsl(144.5, 32.4%, 52%)" stroke-width="1.5"></path><path d="M1690.65 818.89L1690.65 818.89" stroke="hsl(144.5, 32.4%, 52%)" stroke-width="1.5"></path><path d="M1690.65 818.89L1572.83 816.88" stroke="hsl(144.5, 32.4%, 52%)" stroke-width="1.5"></path><path d="M1690.65 818.89L1744.15 661.23" stroke="hsl(144.5, 32.4%, 52%)" stroke-width="1.5"></path><path d="M1690.65 818.89L1571.26 1000.03" stroke="hsl(144.5, 32.4%, 52%)" stroke-width="1.5"></path><path d="M1690.65 818.89L1438.7 828.94" stroke="hsl(144.5, 32.4%, 52%)" stroke-width="1.5"></path><path d="M1690.65 818.89L1414.81 708.98" stroke="hsl(144.5, 32.4%, 52%)" stroke-width="1.5"></path><path d="M1690.65 818.89L1729.79 510.88" stroke="hsl(144.5, 32.4%, 52%)" stroke-width="1.5"></path><path d="M-39.22 796.32L-39.22 796.32" stroke="hsl(144.5, 32.4%, 52%)" stroke-width="1.5"></path><path d="M-39.22 796.32L41.83 847.25" stroke="hsl(144.5, 32.4%, 52%)" stroke-width="1.5"></path><path d="M-39.22 796.32L57.42 975.15" stroke="hsl(144.5, 32.4%, 52%)" stroke-width="1.5"></path><path d="M-39.22 796.32L217.1 944.38" stroke="hsl(144.5, 32.4%, 52%)" stroke-width="1.5"></path><path d="M-39.22 796.32L262.08 787.92" stroke="hsl(144.5, 32.4%, 52%)" stroke-width="1.5"></path><path d="M41.83 847.25L41.83 847.25" stroke="hsl(144.5, 32.4%, 52%)" stroke-width="1.5"></path><path d="M41.83 847.25L57.42 975.15" stroke="hsl(144.5, 32.4%, 52%)" stroke-width="1.5"></path><path d="M41.83 847.25L217.1 944.38" stroke="hsl(144.5, 32.4%, 52%)" stroke-width="1.5"></path><path d="M57.42 975.15L57.42 975.15" stroke="hsl(144.5, 32.4%, 52%)" stroke-width="1.5"></path><path d="M258.72 708.58L258.72 708.58" stroke="hsl(144.5, 32.4%, 52%)" stroke-width="1.5"></path><path d="M258.72 708.58L262.08 787.92" stroke="hsl(144.5, 32.4%, 52%)" stroke-width="1.5"></path><path d="M258.72 708.58L392.35 818.38" stroke="hsl(144.5, 32.4%, 52%)" stroke-width="1.5"></path><path d="M258.72 708.58L217.1 944.38" stroke="hsl(144.5, 32.4%, 52%)" stroke-width="1.5"></path><path d="M258.72 708.58L41.83 847.25" stroke="hsl(144.5, 32.4%, 52%)" stroke-width="1.5"></path><path d="M258.72 708.58L401.76 940.99" stroke="hsl(144.5, 32.4%, 52%)" stroke-width="1.5"></path><path d="M258.72 708.58L537.76 685.91" stroke="hsl(144.5, 32.4%, 52%)" stroke-width="1.5"></path><path d="M262.08 787.92L262.08 787.92" stroke="hsl(144.5, 32.4%, 52%)" stroke-width="1.5"></path><path d="M262.08 787.92L217.1 944.38" stroke="hsl(144.5, 32.4%, 52%)" stroke-width="1.5"></path><path d="M262.08 787.92L401.76 940.99" stroke="hsl(144.5, 32.4%, 52%)" stroke-width="1.5"></path><path d="M217.1 944.38L217.1 944.38" stroke="hsl(144.5, 32.4%, 52%)" stroke-width="1.5"></path><path d="M217.1 944.38L57.42 975.15" stroke="hsl(144.5, 32.4%, 52%)" stroke-width="1.5"></path><path d="M401.76 940.99L401.76 940.99" stroke="hsl(144.5, 32.4%, 52%)" stroke-width="1.5"></path><path d="M401.76 940.99L550.65 1011.11" stroke="hsl(144.5, 32.4%, 52%)" stroke-width="1.5"></path><path d="M537.76 685.91L537.76 685.91" stroke="hsl(144.5, 32.4%, 52%)" stroke-width="1.5"></path><path d="M537.76 685.91L685.69 645.18" stroke="hsl(144.5, 32.4%, 52%)" stroke-width="1.5"></path><path d="M537.76 685.91L556.1 852.36" stroke="hsl(144.5, 32.4%, 52%)" stroke-width="1.5"></path><path d="M537.76 685.91L392.35 818.38" stroke="hsl(144.5, 32.4%, 52%)" stroke-width="1.5"></path><path d="M556.1 852.36L556.1 852.36" stroke="hsl(144.5, 32.4%, 52%)" stroke-width="1.5"></path><path d="M556.1 852.36L712.45 846.07" stroke="hsl(144.5, 32.4%, 52%)" stroke-width="1.5"></path><path d="M556.1 852.36L550.65 1011.11" stroke="hsl(144.5, 32.4%, 52%)" stroke-width="1.5"></path><path d="M556.1 852.36L392.35 818.38" stroke="hsl(144.5, 32.4%, 52%)" stroke-width="1.5"></path><path d="M550.65 1011.11L550.65 1011.11" stroke="hsl(144.5, 32.4%, 52%)" stroke-width="1.5"></path><path d="M550.65 1011.11L706.82 1000.57" stroke="hsl(144.5, 32.4%, 52%)" stroke-width="1.5"></path><path d="M550.65 1011.11L712.45 846.07" stroke="hsl(144.5, 32.4%, 52%)" stroke-width="1.5"></path><path d="M685.69 645.18L685.69 645.18" stroke="hsl(144.5, 32.4%, 52%)" stroke-width="1.5"></path><path d="M685.69 645.18L712.45 846.07" stroke="hsl(144.5, 32.4%, 52%)" stroke-width="1.5"></path><path d="M712.45 846.07L712.45 846.07" stroke="hsl(144.5, 32.4%, 52%)" stroke-width="1.5"></path><path d="M712.45 846.07L832.5 788.71" stroke="hsl(144.5, 32.4%, 52%)" stroke-width="1.5"></path><path d="M712.45 846.07L706.82 1000.57" stroke="hsl(144.5, 32.4%, 52%)" stroke-width="1.5"></path><path d="M706.82 1000.57L706.82 1000.57" stroke="hsl(144.5, 32.4%, 52%)" stroke-width="1.5"></path><path d="M832.5 788.71L832.5 788.71" stroke="hsl(144.5, 32.4%, 52%)" stroke-width="1.5"></path><path d="M832.5 788.71L979.4 802.65" stroke="hsl(144.5, 32.4%, 52%)" stroke-width="1.5"></path><path d="M953.96 682.25L953.96 682.25" stroke="hsl(144.5, 32.4%, 52%)" stroke-width="1.5"></path><path d="M953.96 682.25L979.4 802.65" stroke="hsl(144.5, 32.4%, 52%)" stroke-width="1.5"></path><path d="M953.96 682.25L813.72 685.03" stroke="hsl(144.5, 32.4%, 52%)" stroke-width="1.5"></path><path d="M953.96 682.25L832.5 788.71" stroke="hsl(144.5, 32.4%, 52%)" stroke-width="1.5"></path><path d="M979.4 802.65L979.4 802.65" stroke="hsl(144.5, 32.4%, 52%)" stroke-width="1.5"></path><path d="M979.4 802.65L1092.62 846.28" stroke="hsl(144.5, 32.4%, 52%)" stroke-width="1.5"></path><path d="M964.83 955.98L964.83 955.98" stroke="hsl(144.5, 32.4%, 52%)" stroke-width="1.5"></path><path d="M964.83 955.98L1100.91 993.64" stroke="hsl(144.5, 32.4%, 52%)" stroke-width="1.5"></path><path d="M964.83 955.98L979.4 802.65" stroke="hsl(144.5, 32.4%, 52%)" stroke-width="1.5"></path><path d="M964.83 955.98L1092.62 846.28" stroke="hsl(144.5, 32.4%, 52%)" stroke-width="1.5"></path><path d="M964.83 955.98L832.5 788.71" stroke="hsl(144.5, 32.4%, 52%)" stroke-width="1.5"></path><path d="M964.83 955.98L706.82 1000.57" stroke="hsl(144.5, 32.4%, 52%)" stroke-width="1.5"></path><path d="M964.83 955.98L953.96 682.25" stroke="hsl(144.5, 32.4%, 52%)" stroke-width="1.5"></path><path d="M1114.72 369L1114.72 369" stroke="hsl(144.5, 32.4%, 52%)" stroke-width="1.5"></path><path d="M1114.72 369L1102.18 506.36" stroke="hsl(144.5, 32.4%, 52%)" stroke-width="1.5"></path><path d="M1114.72 369L1276.11 228.66" stroke="hsl(144.5, 32.4%, 52%)" stroke-width="1.5"></path><path d="M1114.72 369L1274.31 541.24" stroke="hsl(144.5, 32.4%, 52%)" stroke-width="1.5"></path><path d="M1102.18 506.36L1102.18 506.36" stroke="hsl(144.5, 32.4%, 52%)" stroke-width="1.5"></path><path d="M1102.18 506.36L1156.42 644.39" stroke="hsl(144.5, 32.4%, 52%)" stroke-width="1.5"></path><path d="M1102.18 506.36L1274.31 541.24" stroke="hsl(144.5, 32.4%, 52%)" stroke-width="1.5"></path><path d="M1102.18 506.36L1265.74 641.6" stroke="hsl(144.5, 32.4%, 52%)" stroke-width="1.5"></path><path d="M1102.18 506.36L1254.98 345.38" stroke="hsl(144.5, 32.4%, 52%)" stroke-width="1.5"></path><path d="M1156.42 644.39L1156.42 644.39" stroke="hsl(144.5, 32.4%, 52%)" stroke-width="1.5"></path><path d="M1156.42 644.39L1265.74 641.6" stroke="hsl(144.5, 32.4%, 52%)" stroke-width="1.5"></path><path d="M1156.42 644.39L1274.31 541.24" stroke="hsl(144.5, 32.4%, 52%)" stroke-width="1.5"></path><path d="M1092.62 846.28L1092.62 846.28" stroke="hsl(144.5, 32.4%, 52%)" stroke-width="1.5"></path><path d="M1092.62 846.28L1100.91 993.64" stroke="hsl(144.5, 32.4%, 52%)" stroke-width="1.5"></path><path d="M1092.62 846.28L1242.27 829.55" stroke="hsl(144.5, 32.4%, 52%)" stroke-width="1.5"></path><path d="M1092.62 846.28L1156.42 644.39" stroke="hsl(144.5, 32.4%, 52%)" stroke-width="1.5"></path><path d="M1092.62 846.28L953.96 682.25" stroke="hsl(144.5, 32.4%, 52%)" stroke-width="1.5"></path><path d="M1100.91 993.64L1100.91 993.64" stroke="hsl(144.5, 32.4%, 52%)" stroke-width="1.5"></path><path d="M1100.91 993.64L1242.27 829.55" stroke="hsl(144.5, 32.4%, 52%)" stroke-width="1.5"></path><path d="M1304.64 82.2L1304.64 82.2" stroke="hsl(144.5, 32.4%, 52%)" stroke-width="1.5"></path><path d="M1304.64 82.2L1276.11 228.66" stroke="hsl(144.5, 32.4%, 52%)" stroke-width="1.5"></path><path d="M1304.64 82.2L1446.44 -106.73" stroke="hsl(144.5, 32.4%, 52%)" stroke-width="1.5"></path><path d="M1304.64 82.2L1254.98 345.38" stroke="hsl(144.5, 32.4%, 52%)" stroke-width="1.5"></path><path d="M1276.11 228.66L1276.11 228.66" stroke="hsl(144.5, 32.4%, 52%)" stroke-width="1.5"></path><path d="M1276.11 228.66L1438.2 372.21" stroke="hsl(144.5, 32.4%, 52%)" stroke-width="1.5"></path><path d="M1276.11 228.66L1406.73 505.07" stroke="hsl(144.5, 32.4%, 52%)" stroke-width="1.5"></path><path d="M1274.31 541.24L1274.31 541.24" stroke="hsl(144.5, 32.4%, 52%)" stroke-width="1.5"></path><path d="M1274.31 541.24L1265.74 641.6" stroke="hsl(144.5, 32.4%, 52%)" stroke-width="1.5"></path><path d="M1265.74 641.6L1265.74 641.6" stroke="hsl(144.5, 32.4%, 52%)" stroke-width="1.5"></path><path d="M1265.74 641.6L1414.81 708.98" stroke="hsl(144.5, 32.4%, 52%)" stroke-width="1.5"></path><path d="M1265.74 641.6L1242.27 829.55" stroke="hsl(144.5, 32.4%, 52%)" stroke-width="1.5"></path><path d="M1265.74 641.6L1406.73 505.07" stroke="hsl(144.5, 32.4%, 52%)" stroke-width="1.5"></path><path d="M1242.27 829.55L1242.27 829.55" stroke="hsl(144.5, 32.4%, 52%)" stroke-width="1.5"></path><path d="M1242.27 829.55L1438.7 828.94" stroke="hsl(144.5, 32.4%, 52%)" stroke-width="1.5"></path><path d="M1446.44 -106.73L1446.44 -106.73" stroke="hsl(144.5, 32.4%, 52%)" stroke-width="1.5"></path><path d="M1446.44 -106.73L1603.07 41.64" stroke="hsl(144.5, 32.4%, 52%)" stroke-width="1.5"></path><path d="M1446.44 -106.73L1737.53 -77.52" stroke="hsl(144.5, 32.4%, 52%)" stroke-width="1.5"></path><path d="M1446.44 -106.73L1747.22 104.01" stroke="hsl(144.5, 32.4%, 52%)" stroke-width="1.5"></path><path d="M1446.44 -106.73L1276.11 228.66" stroke="hsl(144.5, 32.4%, 52%)" stroke-width="1.5"></path><path d="M1406.73 505.07L1406.73 505.07" stroke="hsl(144.5, 32.4%, 52%)" stroke-width="1.5"></path><path d="M1406.73 505.07L1274.31 541.24" stroke="hsl(144.5, 32.4%, 52%)" stroke-width="1.5"></path><path d="M1414.81 708.98L1414.81 708.98" stroke="hsl(144.5, 32.4%, 52%)" stroke-width="1.5"></path><path d="M1414.81 708.98L1438.7 828.94" stroke="hsl(144.5, 32.4%, 52%)" stroke-width="1.5"></path><path d="M1414.81 708.98L1572.83 816.88" stroke="hsl(144.5, 32.4%, 52%)" stroke-width="1.5"></path><path d="M1414.81 708.98L1406.73 505.07" stroke="hsl(144.5, 32.4%, 52%)" stroke-width="1.5"></path><path d="M1438.7 828.94L1438.7 828.94" stroke="hsl(144.5, 32.4%, 52%)" stroke-width="1.5"></path><path d="M1438.7 828.94L1572.83 816.88" stroke="hsl(144.5, 32.4%, 52%)" stroke-width="1.5"></path><path d="M1438.7 828.94L1394.96 981.19" stroke="hsl(144.5, 32.4%, 52%)" stroke-width="1.5"></path><path d="M1438.7 828.94L1571.26 1000.03" stroke="hsl(144.5, 32.4%, 52%)" stroke-width="1.5"></path><path d="M1394.96 981.19L1394.96 981.19" stroke="hsl(144.5, 32.4%, 52%)" stroke-width="1.5"></path><path d="M1394.96 981.19L1571.26 1000.03" stroke="hsl(144.5, 32.4%, 52%)" stroke-width="1.5"></path><path d="M1394.96 981.19L1242.27 829.55" stroke="hsl(144.5, 32.4%, 52%)" stroke-width="1.5"></path><path d="M1394.96 981.19L1572.83 816.88" stroke="hsl(144.5, 32.4%, 52%)" stroke-width="1.5"></path><path d="M1394.96 981.19L1414.81 708.98" stroke="hsl(144.5, 32.4%, 52%)" stroke-width="1.5"></path><path d="M1603.07 41.64L1603.07 41.64" stroke="hsl(144.5, 32.4%, 52%)" stroke-width="1.5"></path><path d="M1603.07 41.64L1747.22 104.01" stroke="hsl(144.5, 32.4%, 52%)" stroke-width="1.5"></path><path d="M1603.07 41.64L1737.53 -77.52" stroke="hsl(144.5, 32.4%, 52%)" stroke-width="1.5"></path><path d="M1594.62 376.36L1594.62 376.36" stroke="hsl(144.5, 32.4%, 52%)" stroke-width="1.5"></path><path d="M1594.62 376.36L1741.03 372.58" stroke="hsl(144.5, 32.4%, 52%)" stroke-width="1.5"></path><path d="M1543.7 536.13L1543.7 536.13" stroke="hsl(144.5, 32.4%, 52%)" stroke-width="1.5"></path><path d="M1543.7 536.13L1406.73 505.07" stroke="hsl(144.5, 32.4%, 52%)" stroke-width="1.5"></path><path d="M1543.7 536.13L1594.62 376.36" stroke="hsl(144.5, 32.4%, 52%)" stroke-width="1.5"></path><path d="M1543.7 536.13L1729.79 510.88" stroke="hsl(144.5, 32.4%, 52%)" stroke-width="1.5"></path><path d="M1543.7 536.13L1438.2 372.21" stroke="hsl(144.5, 32.4%, 52%)" stroke-width="1.5"></path><path d="M1543.7 536.13L1414.81 708.98" stroke="hsl(144.5, 32.4%, 52%)" stroke-width="1.5"></path><path d="M1543.7 536.13L1744.15 661.23" stroke="hsl(144.5, 32.4%, 52%)" stroke-width="1.5"></path><path d="M1572.83 816.88L1572.83 816.88" stroke="hsl(144.5, 32.4%, 52%)" stroke-width="1.5"></path><path d="M1572.83 816.88L1571.26 1000.03" stroke="hsl(144.5, 32.4%, 52%)" stroke-width="1.5"></path><path d="M1572.83 816.88L1744.15 661.23" stroke="hsl(144.5, 32.4%, 52%)" stroke-width="1.5"></path><path d="M1571.26 1000.03L1571.26 1000.03" stroke="hsl(144.5, 32.4%, 52%)" stroke-width="1.5"></path><path d="M1737.53 -77.52L1737.53 -77.52" stroke="hsl(144.5, 32.4%, 52%)" stroke-width="1.5"></path><path d="M1747.22 104.01L1747.22 104.01" stroke="hsl(144.5, 32.4%, 52%)" stroke-width="1.5"></path><path d="M1747.22 104.01L1741.2 220.49" stroke="hsl(144.5, 32.4%, 52%)" stroke-width="1.5"></path><path d="M1747.22 104.01L1737.53 -77.52" stroke="hsl(144.5, 32.4%, 52%)" stroke-width="1.5"></path><path d="M1747.22 104.01L1741.03 372.58" stroke="hsl(144.5, 32.4%, 52%)" stroke-width="1.5"></path><path d="M1741.2 220.49L1741.2 220.49" stroke="hsl(144.5, 32.4%, 52%)" stroke-width="1.5"></path><path d="M1741.2 220.49L1741.03 372.58" stroke="hsl(144.5, 32.4%, 52%)" stroke-width="1.5"></path><path d="M1741.2 220.49L1594.62 376.36" stroke="hsl(144.5, 32.4%, 52%)" stroke-width="1.5"></path><path d="M1741.2 220.49L1603.07 41.64" stroke="hsl(144.5, 32.4%, 52%)" stroke-width="1.5"></path><path d="M1741.2 220.49L1729.79 510.88" stroke="hsl(144.5, 32.4%, 52%)" stroke-width="1.5"></path><path d="M1741.03 372.58L1741.03 372.58" stroke="hsl(144.5, 32.4%, 52%)" stroke-width="1.5"></path><path d="M1741.03 372.58L1729.79 510.88" stroke="hsl(144.5, 32.4%, 52%)" stroke-width="1.5"></path><path d="M1741.03 372.58L1543.7 536.13" stroke="hsl(144.5, 32.4%, 52%)" stroke-width="1.5"></path><path d="M1729.79 510.88L1729.79 510.88" stroke="hsl(144.5, 32.4%, 52%)" stroke-width="1.5"></path><path d="M1729.79 510.88L1744.15 661.23" stroke="hsl(144.5, 32.4%, 52%)" stroke-width="1.5"></path><path d="M1729.79 510.88L1594.62 376.36" stroke="hsl(144.5, 32.4%, 52%)" stroke-width="1.5"></path><path d="M1744.15 661.23L1744.15 661.23" stroke="hsl(144.5, 32.4%, 52%)" stroke-width="1.5"></path><circle r="25" cx="-85.24" cy="978.18" fill="url(&quot;#SvgjsRadialGradient1163&quot;)"></circle><circle r="25" cx="392.35" cy="818.38" fill="url(&quot;#SvgjsRadialGradient1163&quot;)"></circle><circle r="25" cx="813.72" cy="685.03" fill="url(&quot;#SvgjsRadialGradient1163&quot;)"></circle><circle r="25" cx="938.61" cy="547.69" fill="url(&quot;#SvgjsRadialGradient1163&quot;)"></circle><circle r="25" cx="1254.98" cy="345.38" fill="url(&quot;#SvgjsRadialGradient1163&quot;)"></circle><circle r="25" cx="1285.61" cy="990.55" fill="url(&quot;#SvgjsRadialGradient1163&quot;)"></circle><circle r="25" cx="1438.2" cy="372.21" fill="url(&quot;#SvgjsRadialGradient1163&quot;)"></circle><circle r="25" cx="1544.42" cy="-94.64" fill="url(&quot;#SvgjsRadialGradient1163&quot;)"></circle><circle r="25" cx="1690.65" cy="818.89" fill="url(&quot;#SvgjsRadialGradient1163&quot;)"></circle><circle r="5" cx="-39.22" cy="796.32" fill="#a2c3b0"></circle><circle r="5" cx="41.83" cy="847.25" fill="#a2c3b0"></circle><circle r="5" cx="57.42" cy="975.15" fill="#a2c3b0"></circle><circle r="5" cx="258.72" cy="708.58" fill="#a2c3b0"></circle><circle r="5" cx="262.08" cy="787.92" fill="#a2c3b0"></circle><circle r="5" cx="217.1" cy="944.38" fill="#a2c3b0"></circle><circle r="5" cx="401.76" cy="940.99" fill="#a2c3b0"></circle><circle r="5" cx="537.76" cy="685.91" fill="#a2c3b0"></circle><circle r="5" cx="556.1" cy="852.36" fill="#a2c3b0"></circle><circle r="5" cx="550.65" cy="1011.11" fill="#a2c3b0"></circle><circle r="5" cx="685.69" cy="645.18" fill="#a2c3b0"></circle><circle r="5" cx="712.45" cy="846.07" fill="#a2c3b0"></circle><circle r="5" cx="706.82" cy="1000.57" fill="#a2c3b0"></circle><circle r="5" cx="832.5" cy="788.71" fill="#a2c3b0"></circle><circle r="5" cx="953.96" cy="682.25" fill="#a2c3b0"></circle><circle r="5" cx="979.4" cy="802.65" fill="#a2c3b0"></circle><circle r="5" cx="964.83" cy="955.98" fill="#a2c3b0"></circle><circle r="5" cx="1114.72" cy="369" fill="#a2c3b0"></circle><circle r="5" cx="1102.18" cy="506.36" fill="#a2c3b0"></circle><circle r="5" cx="1156.42" cy="644.39" fill="#a2c3b0"></circle><circle r="5" cx="1092.62" cy="846.28" fill="#a2c3b0"></circle><circle r="5" cx="1100.91" cy="993.64" fill="#a2c3b0"></circle><circle r="5" cx="1304.64" cy="82.2" fill="#a2c3b0"></circle><circle r="5" cx="1276.11" cy="228.66" fill="#a2c3b0"></circle><circle r="5" cx="1274.31" cy="541.24" fill="#a2c3b0"></circle><circle r="5" cx="1265.74" cy="641.6" fill="#a2c3b0"></circle><circle r="5" cx="1242.27" cy="829.55" fill="#a2c3b0"></circle><circle r="5" cx="1446.44" cy="-106.73" fill="#a2c3b0"></circle><circle r="5" cx="1406.73" cy="505.07" fill="#a2c3b0"></circle><circle r="5" cx="1414.81" cy="708.98" fill="#a2c3b0"></circle><circle r="5" cx="1438.7" cy="828.94" fill="#a2c3b0"></circle><circle r="5" cx="1394.96" cy="981.19" fill="#a2c3b0"></circle><circle r="5" cx="1603.07" cy="41.64" fill="#a2c3b0"></circle><circle r="5" cx="1594.62" cy="376.36" fill="#a2c3b0"></circle><circle r="5" cx="1543.7" cy="536.13" fill="#a2c3b0"></circle><circle r="5" cx="1572.83" cy="816.88" fill="#a2c3b0"></circle><circle r="5" cx="1571.26" cy="1000.03" fill="#a2c3b0"></circle><circle r="5" cx="1737.53" cy="-77.52" fill="#a2c3b0"></circle><circle r="5" cx="1747.22" cy="104.01" fill="#a2c3b0"></circle><circle r="5" cx="1741.2" cy="220.49" fill="#a2c3b0"></circle><circle r="5" cx="1741.03" cy="372.58" fill="#a2c3b0"></circle><circle r="5" cx="1729.79" cy="510.88" fill="#a2c3b0"></circle><circle r="5" cx="1744.15" cy="661.23" fill="#a2c3b0"></circle></g><defs><mask id="SvgjsMask1162"><rect width="1513" height="900" fill="#ffffff"></rect></mask><radialGradient id="SvgjsRadialGradient1163"><stop stop-color="#ffffff" offset="0.1"></stop><stop stop-color="rgba(69, 135, 96, 1)" offset="0.2"></stop><stop stop-color="rgba(69, 135, 96, 0)" offset="1"></stop></radialGradient></defs></svg>